<svg width="521" height="467" viewBox="0 0 521 467" fill="none" xmlns="http://www.w3.org/2000/svg">
<path d="M401.17 56.04C399.788 56.04 398.463 56.532 397.486 57.4078C396.509 58.2836 395.96 59.4714 395.96 60.71C395.96 61.9486 396.509 63.1364 397.486 64.0122C398.463 64.888 399.788 65.38 401.17 65.38C402.552 65.38 403.877 64.888 404.854 64.0122C405.831 63.1364 406.38 61.9486 406.38 60.71C406.38 59.4714 405.831 58.2836 404.854 57.4078C403.877 56.532 402.552 56.04 401.17 56.04Z" fill="#F1BC19"/>
<path d="M260.5 60.71C209.374 60.71 160.342 78.9146 124.191 111.319C88.0396 143.723 67.73 187.673 67.73 233.5C67.73 279.327 88.0396 323.277 124.191 355.681C160.342 388.085 209.374 406.29 260.5 406.29C311.626 406.29 360.658 388.085 396.809 355.681C432.96 323.277 453.27 279.327 453.27 233.5C453.27 187.673 432.96 143.723 396.809 111.319C360.658 78.9146 311.626 60.71 260.5 60.71Z" fill="#C0E5E4"/>
<path d="M432.43 51.37C426.903 51.37 421.602 53.3381 417.694 56.8412C413.786 60.3444 411.59 65.0958 411.59 70.05C411.59 75.0042 413.786 79.7556 417.694 83.2588C421.602 86.7619 426.903 88.73 432.43 88.73C437.957 88.73 443.258 86.7619 447.166 83.2588C451.074 79.7556 453.27 75.0042 453.27 70.05C453.27 65.0958 451.074 60.3444 447.166 56.8412C443.258 53.3381 437.957 51.37 432.43 51.37Z" fill="#F1BC19"/>
<path d="M453.27 102.74C450.506 102.74 447.856 103.724 445.902 105.476C443.948 107.227 442.85 109.603 442.85 112.08C442.85 114.557 443.948 116.933 445.902 118.684C447.856 120.436 450.506 121.42 453.27 121.42C456.034 121.42 458.684 120.436 460.638 118.684C462.592 116.933 463.69 114.557 463.69 112.08C463.69 109.603 462.592 107.227 460.638 105.476C458.684 103.724 456.034 102.74 453.27 102.74Z" fill="#00A5A5"/>
<path d="M422.01 345.58C419.246 345.58 416.596 346.564 414.642 348.316C412.688 350.067 411.59 352.443 411.59 354.92C411.59 357.397 412.688 359.773 414.642 361.524C416.596 363.276 419.246 364.26 422.01 364.26C424.774 364.26 427.424 363.276 429.378 361.524C431.332 359.773 432.43 357.397 432.43 354.92C432.43 352.443 431.332 350.067 429.378 348.316C427.424 346.564 424.774 345.58 422.01 345.58ZM78.1501 275.53C72.6229 275.53 67.3222 277.498 63.414 281.001C59.5057 284.504 57.3101 289.256 57.3101 294.21C57.3101 299.164 59.5057 303.916 63.414 307.419C67.3222 310.922 72.6229 312.89 78.1501 312.89C83.6772 312.89 88.9779 310.922 92.8862 307.419C96.7944 303.916 98.9901 299.164 98.9901 294.21C98.9901 289.256 96.7944 284.504 92.8862 281.001C88.9779 277.498 83.6772 275.53 78.1501 275.53Z" fill="#FBCD59"/>
<path d="M130.25 396.95C127.487 396.95 124.836 397.934 122.882 399.686C120.928 401.437 119.83 403.813 119.83 406.29C119.83 408.767 120.928 411.143 122.882 412.894C124.836 414.646 127.487 415.63 130.25 415.63C133.014 415.63 135.664 414.646 137.618 412.894C139.572 411.143 140.67 408.767 140.67 406.29C140.67 403.813 139.572 401.437 137.618 399.686C135.664 397.934 133.014 396.95 130.25 396.95Z" fill="#00A5A5"/>
<path d="M96.3851 228.83C92.9307 228.83 89.6177 230.06 87.175 232.25C84.7324 234.439 83.3601 237.409 83.3601 240.505C83.3601 243.601 84.7324 246.571 87.175 248.76C89.6177 250.95 92.9307 252.18 96.3851 252.18C99.8396 252.18 103.153 250.95 105.595 248.76C108.038 246.571 109.41 243.601 109.41 240.505C109.41 237.409 108.038 234.439 105.595 232.25C103.153 230.06 99.8396 228.83 96.3851 228.83ZM414.195 149.44C412.122 149.44 410.135 150.178 408.669 151.492C407.203 152.805 406.38 154.587 406.38 156.445C406.38 158.303 407.203 160.085 408.669 161.398C410.135 162.712 412.122 163.45 414.195 163.45C416.268 163.45 418.256 162.712 419.721 161.398C421.187 160.085 422.01 158.303 422.01 156.445C422.01 154.587 421.187 152.805 419.721 151.492C418.256 150.178 416.268 149.44 414.195 149.44Z" fill="white"/>
<path d="M130.25 208.282V312.89H270.92V317.56H390.75V208.282H130.25Z" fill="#FDFCEE"/>
<path d="M158.254 312.89C158.254 312.89 158.254 268.777 158.254 256.85C158.254 244.923 169.044 235.251 182.35 235.251C195.656 235.251 206.446 244.923 206.446 256.85C206.446 263.22 206.446 312.89 206.446 312.89H158.254Z" fill="#B2B1C2"/>
<path d="M130.25 208.282V214.82H270.92V219.49H390.75V208.282H130.25Z" fill="#CDCBBD"/>
<path d="M382.169 144.303H143.723L119.736 205.947H401.352L382.169 144.303Z" fill="#EE3E54"/>
<path d="M132.334 205.48H125.04V315.225C125.04 316.514 126.207 317.56 127.645 317.56H270.92V311.022H132.334V205.48Z" fill="#472B29"/>
<path d="M388.666 205.48V315.692H273.004V205.48H265.71V319.895C265.71 321.184 266.877 322.23 268.315 322.23H393.355C394.793 322.23 395.96 321.184 395.96 319.895V205.48H388.666Z" fill="#472B29"/>
<path d="M380.189 146.638L397.924 203.612H123.404L145.573 146.638H380.189ZM382.925 140.1H143.02C141.452 140.1 140.055 140.983 139.54 142.3L114.823 205.812C114 207.936 115.772 210.15 118.304 210.15H402.697C405.13 210.15 406.891 208.091 406.245 206.008L386.473 142.496C386.03 141.081 384.581 140.1 382.925 140.1Z" fill="#472B29"/>
<path d="M331.486 158.78H153.044C151.965 158.78 151.09 157.995 151.09 157.029C151.09 156.062 151.965 155.277 153.044 155.277H331.486C332.565 155.277 333.44 156.062 333.44 157.029C333.44 157.995 332.565 158.78 331.486 158.78ZM326.276 168.12H150.439C149.36 168.12 148.485 167.335 148.485 166.369C148.485 165.402 149.36 164.617 150.439 164.617H326.276C327.355 164.617 328.23 165.402 328.23 166.369C328.23 167.335 327.355 168.12 326.276 168.12ZM321.066 177.46H147.834C146.755 177.46 145.88 176.675 145.88 175.709C145.88 174.742 146.755 173.957 147.834 173.957H321.066C322.145 173.957 323.02 174.742 323.02 175.709C323.02 176.675 322.145 177.46 321.066 177.46Z" fill="#472B29"/>
<path d="M369.91 127.257C368.092 127.257 345.689 127.257 343.86 127.257C341.703 127.257 339.953 128.827 339.953 130.76C339.953 132.693 341.703 134.263 343.86 134.263C345.689 134.263 368.092 134.263 369.91 134.263C372.067 134.263 373.818 132.693 373.818 130.76C373.818 128.827 372.067 127.257 369.91 127.257Z" fill="#FBB97F"/>
<path d="M369.91 135.43H343.86C340.989 135.43 338.65 133.333 338.65 130.76C338.65 128.187 340.989 126.09 343.86 126.09H369.91C372.781 126.09 375.12 128.187 375.12 130.76C375.12 133.333 372.781 135.43 369.91 135.43ZM343.86 128.425C342.422 128.425 341.255 129.471 341.255 130.76C341.255 132.049 342.422 133.095 343.86 133.095H369.91C371.348 133.095 372.515 132.049 372.515 130.76C372.515 129.471 371.348 128.425 369.91 128.425H343.86Z" fill="#472B29"/>
<path d="M368.608 176.292H345.163V134.262H369.259L368.608 176.292Z" fill="#FDD4B2"/>
<path d="M368.608 177.46H345.163C344.444 177.46 343.86 176.937 343.86 176.292V134.263C343.86 133.618 344.444 133.095 345.163 133.095H369.259C369.608 133.095 369.941 133.221 370.186 133.441C370.431 133.665 370.567 133.964 370.561 134.277L369.91 176.306C369.9 176.946 369.321 177.46 368.608 177.46ZM346.465 175.125H367.321L367.936 135.43H346.465V175.125ZM390.099 221.825H298.273C297.554 221.825 296.97 221.302 296.97 220.657C296.97 220.013 297.554 219.49 298.273 219.49H390.099C390.818 219.49 391.401 220.013 391.401 220.657C391.401 221.302 390.818 221.825 390.099 221.825ZM290.458 221.825H282.643C281.924 221.825 281.34 221.302 281.34 220.657C281.34 220.013 281.924 219.49 282.643 219.49H290.458C291.177 219.49 291.76 220.013 291.76 220.657C291.76 221.302 291.177 221.825 290.458 221.825ZM227.938 217.155H130.901C130.182 217.155 129.599 216.632 129.599 215.987C129.599 215.343 130.182 214.82 130.901 214.82H227.938C228.657 214.82 229.24 215.343 229.24 215.987C229.24 216.632 228.657 217.155 227.938 217.155ZM248.778 217.155H240.963C240.244 217.155 239.66 216.632 239.66 215.987C239.66 215.343 240.244 214.82 240.963 214.82H248.778C249.497 214.82 250.08 215.343 250.08 215.987C250.08 216.632 249.497 217.155 248.778 217.155Z" fill="#472B29"/>
<path d="M357.536 253.931V292.459H304.134V239.921H347.116L357.536 253.931Z" fill="#C0E5E4"/>
<path d="M357.536 294.21H304.134C303.055 294.21 302.18 293.425 302.18 292.459V239.921C302.18 238.955 303.055 238.17 304.134 238.17H347.116C348.195 238.17 349.07 238.955 349.07 239.921C349.07 240.888 348.195 241.672 347.116 241.672H306.088V290.707H355.583V253.931C355.583 252.965 356.458 252.18 357.536 252.18C358.615 252.18 359.49 252.965 359.49 253.931V292.459C359.49 293.425 358.615 294.21 357.536 294.21Z" fill="#472B29"/>
<path d="M330.835 294.21C329.757 294.21 328.881 293.425 328.881 292.459V239.921C328.881 238.955 329.757 238.17 330.835 238.17C331.914 238.17 332.789 238.955 332.789 239.921V292.459C332.789 293.425 331.914 294.21 330.835 294.21Z" fill="#472B29"/>
<path d="M253.336 264.439L253.352 239.921H220.79L220.774 273.779H248.126L253.336 264.439Z" fill="#C0E5E4"/>
<path d="M248.126 275.53H220.774C220.253 275.53 219.758 275.343 219.393 275.016C219.028 274.689 218.82 274.241 218.82 273.779L218.836 239.921C218.836 238.955 219.711 238.17 220.789 238.17H253.352C253.873 238.17 254.368 238.357 254.733 238.684C255.097 239.011 255.306 239.459 255.306 239.921L255.29 264.439C255.29 265.405 254.415 266.19 253.336 266.19C252.253 266.19 251.383 265.405 251.383 264.439L251.398 241.672H222.743L222.728 272.027H248.126C249.205 272.027 250.08 272.812 250.08 273.779C250.08 274.745 249.205 275.53 248.126 275.53Z" fill="#472B29"/>
<path d="M237.071 275.469C235.992 275.469 235.117 274.685 235.117 273.718V239.921C235.117 238.955 235.992 238.17 237.071 238.17C238.149 238.17 239.024 238.955 239.024 239.921V273.718C239.024 274.685 238.149 275.469 237.071 275.469ZM206.446 314.641C205.368 314.641 204.493 313.857 204.493 312.89V256.85C204.493 245.908 194.557 237.002 182.35 237.002C170.143 237.002 160.208 245.908 160.208 256.85V312.89C160.208 313.857 159.332 314.641 158.254 314.641C157.175 314.641 156.3 313.857 156.3 312.89V256.85C156.3 243.975 167.986 233.5 182.35 233.5C196.714 233.5 208.4 243.975 208.4 256.85V312.89C208.4 313.857 207.525 314.641 206.446 314.641Z" fill="#472B29"/>
<path d="M196.678 261.52C196.678 264.074 196.678 269.692 196.678 269.692H168.023C168.023 269.692 168.023 268.614 168.023 261.52C168.023 254.426 174.436 248.677 182.35 248.677C190.264 248.677 196.678 254.426 196.678 261.52Z" fill="#C0E5E4"/>
<path d="M196.678 270.86H168.023C167.304 270.86 166.72 270.337 166.72 269.693V261.52C166.72 253.796 173.733 247.51 182.35 247.51C190.968 247.51 197.98 253.796 197.98 261.52V269.693C197.98 270.337 197.397 270.86 196.678 270.86ZM169.325 268.525H195.375V261.52C195.375 255.085 189.53 249.845 182.35 249.845C175.171 249.845 169.325 255.085 169.325 261.52V268.525ZM196.678 284.87H194.073C193.354 284.87 192.77 284.347 192.77 283.703C192.77 283.058 193.354 282.535 194.073 282.535H196.678C197.397 282.535 197.98 283.058 197.98 283.703C197.98 284.347 197.397 284.87 196.678 284.87Z" fill="#472B29"/>
</svg>
